<svg width="767" height="211" viewBox="0 0 767 211" fill="none" xmlns="http://www.w3.org/2000/svg">
<path fill-rule="evenodd" clip-rule="evenodd" d="M55.9268 211C40.2826 211 27.1542 206.359 16.4837 197.049C5.40847 187.369 -0.0857402 174.984 0.00101136 159.951V112.803H37.2463V157.93C37.2463 162.827 38.9235 167.012 42.2779 170.4C45.8058 174.101 50.3747 175.952 55.9268 175.952C61.4789 175.952 66.0767 174.13 69.7203 170.4C73.0747 167.097 74.7518 162.912 74.7518 157.93V112.803H111.997V159.951C111.997 175.553 106.503 187.967 95.5144 197.277C84.9307 206.445 71.7734 211 55.9268 211ZM0.00101136 97.9409V51.1627C0.00101136 35.5605 5.49522 23.1186 16.4837 13.6946C27.0674 4.61233 40.138 0.0854136 55.7822 0C71.7155 0 84.9307 4.52692 95.5144 13.6946C106.503 23.0901 111.997 35.5605 111.997 51.1627V97.9409H74.7518V53.1842C74.7518 48.3156 72.9879 44.1019 69.4311 40.4291C65.5273 36.7278 60.9873 34.9342 55.9268 35.0196C50.6639 35.0196 46.1817 36.8132 42.567 40.4291C39.0391 43.9026 37.2463 48.1448 37.2463 53.1842V97.9409H0.00101136ZM140.77 207.64C137.242 207.64 135.42 205.818 135.333 202.145V8.9969C135.333 5.2387 137.155 3.3596 140.77 3.3596H191.375C207.019 3.3596 220.147 8.48441 230.818 18.8195C241.286 29.0976 246.52 41.7103 246.52 56.5438V81.7977C246.52 99.9624 239.724 114.113 226.162 124.248L248.573 202.003C248.949 203.427 248.804 204.708 248.139 205.904C247.474 207.042 246.52 207.64 245.161 207.64H215.839C214.248 207.64 213.178 207.327 212.484 206.672C211.79 206.074 211.328 204.793 211.038 202.914L194.7 136.035C194.238 136.121 193.457 136.178 192.358 136.178H172.694V202.145C172.694 205.818 170.959 207.64 167.518 207.64H140.741H140.77ZM172.723 101.13H191.404C196.956 101.13 201.322 99.4214 204.445 96.0903C207.568 92.7307 209.159 88.3461 209.159 82.965V56.373C209.159 50.9065 207.54 46.5219 204.272 43.2193C200.975 39.9166 196.696 38.2653 191.288 38.2653H172.752V101.13H172.723ZM296.576 207.64C293.684 207.64 292.209 205.904 292.209 202.402V38.2938H261.933C259.012 38.2938 257.566 36.5855 257.566 33.1689V8.71218C257.566 5.0394 259.012 3.24572 261.933 3.3596H359.586C360.887 3.3596 361.957 3.81514 362.796 4.78316C363.692 5.69424 364.097 6.97544 364.097 8.5983V33.1405C364.097 36.5855 362.622 38.2653 359.586 38.2653H329.454V202.402C329.454 205.875 328.008 207.64 325.088 207.64H296.604H296.576ZM384.542 207.64C381.014 207.64 379.192 205.761 379.105 202.003V8.9969C379.105 5.2387 380.927 3.3596 384.542 3.3596H467.534C470.426 3.3596 471.871 5.09634 471.871 8.5983V33.1405C471.871 36.5855 470.426 38.2653 467.534 38.2653H416.495V86.7517H456.083C459.263 86.7517 460.883 88.4885 460.97 92.0189V116.447C460.97 119.921 459.35 121.686 456.083 121.686H416.495V172.706H468.054C471.091 172.706 472.565 174.358 472.565 177.689V202.544C472.565 205.932 471.091 207.64 468.054 207.64H384.57H384.542ZM482.947 207.64C480.026 207.64 479.043 205.761 479.91 202.003L524.009 8.28512C524.905 4.98246 526.901 3.33113 530.024 3.33113H555.76C558.883 3.33113 560.878 4.98246 561.775 8.28512L605.874 202.003C606.741 205.761 605.787 207.64 602.837 207.64H573.775C570.045 207.64 567.963 206.046 567.501 202.829L562.614 173.532H523.026L518.283 202.829C517.821 206.046 515.71 207.64 512.008 207.64H482.947ZM528.636 140.762H557.032L544.454 65.6546L542.95 46.1803L541.33 65.6546L528.607 140.762H528.636ZM622.79 207.64C619.956 207.64 618.539 205.761 618.539 202.003V8.56983C618.828 5.09634 620.274 3.33113 622.906 3.33113H656.71C658.3 3.33113 659.284 3.64431 659.746 4.32762C660.209 5.01093 660.729 6.29213 661.366 8.25665L686.466 97.9124H658.474L652.517 77.043L652.228 75.9896L653.153 86.2962L653.24 112.461L653.558 201.975C653.558 205.733 652.112 207.612 649.192 207.612H622.732L622.79 207.64ZM690.572 112.49H662.667L679.93 172.962C680.596 174.927 681.203 176.265 681.752 177.005C682.273 177.746 683.285 178.059 684.731 178.059H700.838C702.283 178.059 703.296 177.746 703.903 177.005C704.452 176.265 705.06 174.955 705.58 172.962L722.959 112.49H694.852L694.273 114.568L692.654 125.302L691.15 114.568L690.572 112.49ZM698.958 97.9409L724.289 8.28512C725.07 5.6373 725.909 4.07138 726.718 3.7582C727.181 3.47349 727.933 3.3596 728.916 3.3596H762.633C765.294 3.3596 766.74 5.09634 767 8.5983V202.003C767 205.761 765.554 207.64 762.778 207.64H736.29C733.312 207.64 731.866 205.761 731.952 202.003L732.328 86.3247L733.311 76.0181L733.167 77.0715L727.152 97.9409H698.958Z" fill="#DDDFE4"/>
</svg>
