<svg width="355" height="98" viewBox="0 0 355 98" fill="none" xmlns="http://www.w3.org/2000/svg">
<path fill-rule="evenodd" clip-rule="evenodd" d="M25.8853 98C18.6445 98 12.5681 95.8446 7.62937 91.5204C2.50327 87.0244 -0.0396842 81.2722 0.000468101 74.2901V52.3918H17.2391V73.3512C17.2391 75.6257 18.0154 77.5696 19.568 79.1432C21.2009 80.8622 23.3155 81.7218 25.8853 81.7218C28.455 81.7218 30.5831 80.8755 32.2695 79.1432C33.822 77.6092 34.5983 75.6654 34.5983 73.3512V52.3918H51.837V74.2901C51.837 81.5366 49.2941 87.3021 44.2081 91.6262C39.3095 95.8842 33.2198 98 25.8853 98ZM0.000468101 45.4891V23.7628C0.000468101 16.5163 2.54342 10.7376 7.62937 6.36054C12.528 2.14222 18.5776 0.0396708 25.8183 0C33.193 0 39.3095 2.10255 44.2081 6.36054C49.2941 10.7243 51.837 16.5163 51.837 23.7628V45.4891H34.5983V24.7017C34.5983 22.4404 33.7819 20.4833 32.1356 18.7775C30.3288 17.0584 28.2275 16.2253 25.8853 16.265C23.4494 16.265 21.3748 17.0981 19.7018 18.7775C18.0689 20.3908 17.2391 22.3611 17.2391 24.7017V45.4891H0.000468101ZM65.1542 96.4396C63.5213 96.4396 62.6781 95.5933 62.638 93.8875V4.17865C62.638 2.43314 63.4812 1.56038 65.1542 1.56038H88.5764C95.8171 1.56038 101.894 3.94063 106.832 8.74079C111.677 13.5145 114.1 19.3726 114.1 26.262V37.9914C114.1 46.428 110.955 53.0001 104.677 57.7077L115.05 93.8213C115.224 94.4825 115.157 95.0776 114.849 95.633C114.541 96.1619 114.1 96.4396 113.471 96.4396H99.8993C99.1632 96.4396 98.6679 96.2941 98.3467 95.99C98.0255 95.7123 97.8114 95.1173 97.6775 94.2445L90.1155 63.1823C89.9014 63.222 89.54 63.2484 89.0314 63.2484H79.9302V93.8875C79.9302 95.5933 79.1272 96.4396 77.5345 96.4396H65.1408H65.1542ZM79.9436 46.9702H88.5897C91.1595 46.9702 93.1805 46.1768 94.6259 44.6296C96.0714 43.0692 96.8076 41.0328 96.8076 38.5335V26.1827C96.8076 23.6438 96.0581 21.6073 94.5456 20.0734C93.0199 18.5395 91.039 17.7725 88.5362 17.7725H79.957V46.9702H79.9436ZM137.268 96.4396C135.929 96.4396 135.247 95.633 135.247 94.0065V17.7857H121.234C119.882 17.7857 119.213 16.9923 119.213 15.4055V4.04642C119.213 2.34057 119.882 1.50749 121.234 1.56038H166.432C167.034 1.56038 167.529 1.77196 167.917 2.22156C168.332 2.64472 168.519 3.23978 168.519 3.99352V15.3923C168.519 16.9923 167.837 17.7725 166.432 17.7725H152.485V94.0065C152.485 95.6197 151.816 96.4396 150.464 96.4396H137.281H137.268ZM177.982 96.4396C176.349 96.4396 175.506 95.5669 175.466 93.8213V4.17865C175.466 2.43314 176.309 1.56038 177.982 1.56038H216.394C217.733 1.56038 218.402 2.36702 218.402 3.99352V15.3923C218.402 16.9923 217.733 17.7725 216.394 17.7725H192.771V40.2923H211.094C212.567 40.2923 213.316 41.0989 213.356 42.7386V54.0845C213.356 55.6977 212.607 56.5176 211.094 56.5176H192.771V80.2143H216.635C218.041 80.2143 218.723 80.9812 218.723 82.5284V94.0726C218.723 95.6462 218.041 96.4396 216.635 96.4396H177.995H177.982ZM223.528 96.4396C222.176 96.4396 221.721 95.5669 222.123 93.8213L242.534 3.84806C242.948 2.31413 243.872 1.54716 245.317 1.54716H257.229C258.675 1.54716 259.598 2.31413 260.013 3.84806L280.424 93.8213C280.825 95.5669 280.384 96.4396 279.019 96.4396H265.568C263.841 96.4396 262.877 95.6991 262.663 94.2048L260.401 80.5978H242.078L239.883 94.2048C239.669 95.6991 238.692 96.4396 236.979 96.4396H223.528ZM244.675 65.3774H257.818L251.996 30.4936L251.3 21.4487L250.551 30.4936L244.662 65.3774H244.675ZM288.254 96.4396C286.942 96.4396 286.286 95.5669 286.286 93.8213V3.9803C286.42 2.36702 287.089 1.54716 288.307 1.54716H303.953C304.689 1.54716 305.144 1.69262 305.358 2.00999C305.573 2.32735 305.813 2.92241 306.108 3.83484L317.725 45.4759H304.77L302.012 35.783L301.879 35.2938L302.307 40.0807L302.347 52.2332L302.494 93.8081C302.494 95.5536 301.825 96.4264 300.473 96.4264H288.227L288.254 96.4396ZM319.626 52.2464H306.71L314.701 80.3333C315.008 81.2457 315.289 81.8672 315.544 82.211C315.785 82.5548 316.253 82.7003 316.922 82.7003H324.377C325.046 82.7003 325.515 82.5548 325.796 82.211C326.05 81.8672 326.331 81.2589 326.572 80.3333L334.616 52.2464H321.607L321.339 53.2117L320.589 58.197L319.894 53.2117L319.626 52.2464ZM323.507 45.4891L335.232 3.84806C335.593 2.61827 335.981 1.89097 336.356 1.74551C336.57 1.61328 336.918 1.56038 337.373 1.56038H352.979C354.21 1.56038 354.88 2.36702 355 3.99352V93.8213C355 95.5669 354.331 96.4396 353.046 96.4396H340.786C339.408 96.4396 338.738 95.5669 338.779 93.8213L338.953 40.0939L339.408 35.307L339.341 35.7962L336.557 45.4891H323.507Z" fill="#DDDFE4"/>
</svg>
