<svg width="40" height="40" viewBox="0 0 40 40" fill="none" xmlns="http://www.w3.org/2000/svg">
<path d="M0 16C0 8.45753 0 4.68629 2.34315 2.34315C4.68629 0 8.45753 0 16 0H24C31.5425 0 35.3137 0 37.6569 2.34315C40 4.68629 40 8.45753 40 16V24C40 31.5425 40 35.3137 37.6569 37.6569C35.3137 40 31.5425 40 24 40H16C8.45753 40 4.68629 40 2.34315 37.6569C0 35.3137 0 31.5425 0 24V16Z" fill="#FCA311"/>
<path d="M13.0474 9.5H26.9526C27.2873 9.5 27.562 9.77471 27.562 10.1094V11.0316C27.1952 10.459 26.5533 10.0789 25.8239 10.0789H14.3642C13.4863 10.0789 12.7353 10.6294 12.438 11.4035V10.1094C12.438 9.77469 12.7127 9.5 13.0474 9.5ZM26.6322 16.1836C27.0155 16.0198 27.3394 15.7433 27.562 15.3958V17.021C27.3401 16.6598 27.017 16.3675 26.6322 16.1836ZM26.9723 20.9147C27.2083 20.7442 27.4092 20.5281 27.562 20.2793V21.5502C27.4092 21.3014 27.2083 21.0853 26.9723 20.9147ZM26.9723 25.4439C27.2083 25.2734 27.4092 25.0573 27.562 24.8085V26.0793C27.4092 25.8305 27.2083 25.6144 26.9723 25.4439ZM25.6833 30.3893C26.478 30.3893 27.1745 29.9685 27.562 29.3376V29.8906C27.562 30.2253 27.2873 30.5 26.9526 30.5H13.0474C12.7127 30.5 12.438 30.2253 12.438 29.8906V29.3377C12.8255 29.9686 13.5219 30.3893 14.3166 30.3893H15.6316C16.4107 30.3893 17.0953 29.9849 17.487 29.3746C17.8788 29.9849 18.5634 30.3893 19.3425 30.3893H25.6833ZM13.0276 25.4439C12.7916 25.6144 12.5908 25.8305 12.438 26.0793V24.8085C12.5908 25.0573 12.7916 25.2734 13.0276 25.4439ZM13.0276 20.9147C12.7916 21.0852 12.5908 21.3013 12.438 21.5501V20.2794C12.5908 20.5281 12.7916 20.7442 13.0276 20.9147ZM13.4627 16.1409C13.0361 16.3205 12.6779 16.6305 12.438 17.0209V15.0238C12.6259 15.5129 12.9949 15.9128 13.4627 16.1409ZM17.4871 16.9841C17.3257 16.7326 17.1145 16.5161 16.8675 16.3484H18.1066C17.8596 16.5161 17.6485 16.7326 17.4871 16.9841ZM22.5129 16.984C22.3515 16.7325 22.1404 16.516 21.8935 16.3484H23.1324C22.8854 16.516 22.6743 16.7325 22.5129 16.984ZM21.9466 20.9147C22.1707 20.7527 22.3632 20.5496 22.5129 20.3163C22.6626 20.5496 22.8551 20.7527 23.0793 20.9147C22.8551 21.0768 22.6626 21.2799 22.5129 21.5132C22.3632 21.2799 22.1707 21.0768 21.9466 20.9147ZM22.3825 25.0276C22.429 24.9693 22.4725 24.9085 22.5129 24.8455C22.5534 24.9085 22.5969 24.9693 22.6433 25.0276H22.3825ZM17.4871 24.8454C17.6368 25.0786 17.8293 25.2818 18.0535 25.4439C17.8292 25.6059 17.6367 25.8091 17.487 26.0424C17.3373 25.8091 17.1448 25.6059 16.9206 25.4439C17.1448 25.2819 17.3373 25.0787 17.4871 24.8454ZM18.0535 20.9147C17.8293 21.0768 17.6368 21.28 17.487 21.5132C17.3373 21.28 17.1448 21.0768 16.9206 20.9147C17.1448 20.7527 17.3373 20.5495 17.4871 20.3162C17.6368 20.5495 17.8293 20.7527 18.0535 20.9147Z" fill="#FEFEFE" stroke="#0B3847" stroke-width="3"/>
</svg>
