<svg width="690" height="56" viewBox="0 0 690 56" fill="none" xmlns="http://www.w3.org/2000/svg">
<rect y="26" width="285" height="4" rx="2" fill="#FCA311"/>
<path d="M357.25 15.75C352.35 15.75 348.5 19.6 348.5 24.5C348.5 29.4 352.35 33.25 357.25 33.25C357.775 33.25 358.475 33.25 359 33.075C356.725 35.35 353.75 36.75 350.25 36.75C349.2 36.75 348.5 37.45 348.5 38.5C348.5 39.55 349.2 40.25 350.25 40.25C359 40.25 366 33.25 366 24.5C366 19.6 362.15 15.75 357.25 15.75Z" fill="#FCA311"/>
<path d="M332.75 15.75C327.85 15.75 324 19.6 324 24.5C324 29.4 327.85 33.25 332.75 33.25C333.275 33.25 333.975 33.25 334.5 33.075C332.225 35.35 329.25 36.75 325.75 36.75C324.7 36.75 324 37.45 324 38.5C324 39.55 324.7 40.25 325.75 40.25C334.5 40.25 341.5 33.25 341.5 24.5C341.5 19.6 337.65 15.75 332.75 15.75Z" fill="#FCA311"/>
<rect x="405" y="26" width="285" height="4" rx="2" fill="#FCA311"/>
</svg>
