<svg width="16" height="16" viewBox="0 0 16 16" fill="none" xmlns="http://www.w3.org/2000/svg">
<path d="M14.5417 6.04495L10.4302 5.75197C10.2381 5.73895 10.0786 5.62501 10.007 5.44597L8.45747 1.62745C8.29144 1.22054 7.70874 1.22054 7.54272 1.62745L5.99317 5.44597C5.92156 5.62501 5.76205 5.73895 5.56998 5.75197L1.45848 6.04495C1.01576 6.0775 0.836715 6.62766 1.17527 6.91413L4.3297 9.56723C4.47619 9.69093 4.53804 9.87649 4.49246 10.0653L3.49958 14.0661C3.39216 14.4991 3.86418 14.8376 4.2418 14.6032L7.73804 12.4222C7.9008 12.3212 8.09612 12.3212 8.26215 12.4222L11.7584 14.6032C12.136 14.8376 12.6048 14.4958 12.4973 14.0661L11.5045 10.0653C11.4589 9.87649 11.5175 9.69093 11.6672 9.56723L14.8217 6.91413C15.1635 6.62766 14.9844 6.0775 14.5417 6.04495Z" fill="#FCA311"/>
</svg>
