<svg width="668" height="184" viewBox="0 0 668 184" fill="none" xmlns="http://www.w3.org/2000/svg">
<g clip-path="url(#clip0_289_1064)">
<path fill-rule="evenodd" clip-rule="evenodd" d="M48.7081 184C35.0832 184 23.6493 179.953 14.3561 171.834C4.71037 163.393 -0.0746733 152.593 0.000880821 139.483V98.3684H32.4387V137.721C32.4387 141.991 33.8995 145.641 36.8209 148.595C39.8934 151.823 43.8726 153.437 48.7081 153.437C53.5436 153.437 57.5479 151.848 60.7212 148.595C63.6426 145.715 65.1033 142.066 65.1033 137.721V98.3684H97.5412V139.483C97.5412 153.089 92.7562 163.914 83.186 172.033C73.9684 180.028 62.5093 184 48.7081 184ZM0.000880821 85.4082V44.6158C0.000880821 31.0101 4.78593 20.1603 14.3561 11.9422C23.5737 4.02213 34.9572 0.0744839 48.5821 0C62.4589 0 73.9684 3.94764 83.186 11.9422C92.7562 20.1355 97.5412 31.0101 97.5412 44.6158V85.4082H65.1033V46.3786C65.1033 42.133 63.567 38.4585 60.4693 35.2557C57.0694 32.0281 53.1154 30.4639 48.7081 30.5384C44.1245 30.5384 40.2208 32.1025 37.0727 35.2557C34.0002 38.2847 32.4387 41.9841 32.4387 46.3786V85.4082H0.000880821ZM122.6 181.07C119.527 181.07 117.941 179.481 117.865 176.278V7.84563C117.865 4.56834 119.452 2.9297 122.6 2.9297H166.673C180.298 2.9297 191.732 7.39873 201.025 16.4113C210.142 25.3742 214.701 36.373 214.701 49.3083V71.3307C214.701 87.171 208.782 99.5105 196.97 108.349L216.489 176.154C216.816 177.396 216.69 178.513 216.111 179.556C215.532 180.549 214.701 181.07 213.517 181.07H187.98C186.594 181.07 185.662 180.797 185.058 180.226C184.454 179.705 184.051 178.587 183.799 176.949L169.569 118.628C169.167 118.702 168.487 118.752 167.53 118.752H150.404V176.278C150.404 179.481 148.893 181.07 145.896 181.07H122.575H122.6ZM150.429 88.1889H166.698C171.534 88.1889 175.337 86.6992 178.057 83.7944C180.777 80.8647 182.162 77.0411 182.162 72.3487V49.1594C182.162 44.3924 180.751 40.5689 177.906 37.6888C175.035 34.8088 171.307 33.3688 166.598 33.3688H150.454V88.1889H150.429ZM258.295 181.07C255.777 181.07 254.492 179.556 254.492 176.502V33.3936H228.124C225.58 33.3936 224.321 31.9039 224.321 28.9246V7.59735C224.321 4.39455 225.58 2.83039 228.124 2.9297H313.173C314.306 2.9297 315.238 3.32695 315.968 4.1711C316.749 4.96559 317.101 6.08285 317.101 7.49804V28.8997C317.101 31.9039 315.817 33.3688 313.173 33.3688H286.93V176.502C286.93 179.531 285.671 181.07 283.127 181.07H258.32H258.295ZM334.907 181.07C331.835 181.07 330.248 179.432 330.172 176.154V7.84563C330.172 4.56834 331.759 2.9297 334.907 2.9297H407.187C409.706 2.9297 410.965 4.4442 410.965 7.49804V28.8997C410.965 31.9039 409.706 33.3688 407.187 33.3688H362.736V75.6508H397.214C399.984 75.6508 401.395 77.1653 401.47 80.244V101.546C401.47 104.575 400.06 106.115 397.214 106.115H362.736V150.606H407.641C410.285 150.606 411.569 152.046 411.569 154.951V176.626C411.569 179.581 410.285 181.07 407.641 181.07H334.932H334.907ZM420.611 181.07C418.067 181.07 417.211 179.432 417.966 176.154L456.373 7.22494C457.154 4.34489 458.891 2.90487 461.611 2.90487H484.026C486.746 2.90487 488.483 4.34489 489.264 7.22494L527.671 176.154C528.426 179.432 527.595 181.07 525.026 181.07H499.716C496.467 181.07 494.654 179.68 494.251 176.874L489.995 151.326H455.517L451.386 176.874C450.983 179.68 449.145 181.07 445.921 181.07H420.611ZM460.403 122.749H485.134L474.179 57.2533L472.869 40.2709L471.459 57.2533L460.377 122.749H460.403ZM542.404 181.07C539.936 181.07 538.702 179.432 538.702 176.154V7.47322C538.954 4.4442 540.213 2.90487 542.505 2.90487H571.946C573.331 2.90487 574.187 3.17798 574.59 3.77385C574.993 4.36972 575.446 5.48698 576 7.20011L597.861 85.3833H573.482L568.294 67.1845L568.042 66.2658L568.848 75.2535L568.923 98.0704L569.2 176.13C569.2 179.407 567.941 181.045 565.398 181.045H542.354L542.404 181.07ZM601.437 98.0953H577.134L592.169 150.83C592.748 152.543 593.277 153.71 593.756 154.355C594.209 155.001 595.09 155.274 596.35 155.274H610.377C611.637 155.274 612.518 155.001 613.047 154.355C613.526 153.71 614.054 152.568 614.508 150.83L629.644 98.0953H605.164L604.66 99.9077L603.25 109.268L601.941 99.9077L601.437 98.0953ZM608.74 85.4082L630.802 7.22494C631.482 4.91594 632.213 3.5504 632.918 3.27729C633.321 3.02901 633.976 2.9297 634.832 2.9297H664.197C666.514 2.9297 667.773 4.4442 668 7.49804V176.154C668 179.432 666.741 181.07 664.323 181.07H641.254C638.66 181.07 637.401 179.432 637.476 176.154L637.804 75.2784L638.66 66.2906L638.534 67.2093L633.295 85.4082H608.74Z" fill="#FCA311"/>
</g>
<defs>
<clipPath id="clip0_289_1064">
<rect width="668" height="184" fill="white"/>
</clipPath>
</defs>
</svg>
