<svg width="12" height="13" viewBox="0 0 12 13" fill="none" xmlns="http://www.w3.org/2000/svg">
<path d="M1.62473 0.938406C1.19347 0.593397 0.564178 0.663319 0.219168 1.09458C-0.125841 1.52584 -0.0559199 2.15514 0.375342 2.50014L6.00004 6.9999L11.6247 2.50014C12.056 2.15513 12.1259 1.52584 11.7809 1.09458C11.4359 0.663318 10.8066 0.593397 10.3753 0.938406L6.00004 4.43865L1.62473 0.938406Z" fill="#0B3847"/>
<path d="M1.62473 6.9384C1.19347 6.59339 0.564177 6.66331 0.219168 7.09457C-0.125842 7.52584 -0.0559201 8.15513 0.375342 8.50014L6.00004 12.9999L11.6247 8.50014C12.056 8.15513 12.1259 7.52584 11.7809 7.09457C11.4359 6.66331 10.8066 6.59339 10.3753 6.9384L6.00004 10.4386L1.62473 6.9384Z" fill="#0B3847"/>
</svg>
