<svg width="23" height="23" viewBox="0 0 23 23" fill="none" xmlns="http://www.w3.org/2000/svg">
<path d="M11.5 0C5.14871 0 0 5.14871 0 11.5C0 17.8513 5.14871 23 11.5 23C17.8513 23 23 17.8513 23 11.5C23 5.14871 17.8513 0 11.5 0ZM10.0837 5.05761C10.0837 4.68334 10.2324 4.32441 10.497 4.05976C10.7617 3.79511 11.1206 3.64644 11.4949 3.64644C11.8692 3.64644 12.2281 3.79511 12.4927 4.05976C12.7574 4.3244 12.9061 4.68334 12.9061 5.05761V13.2282C12.9061 13.6025 12.7574 13.9614 12.4927 14.2261C12.2281 14.4907 11.8692 14.6394 11.4949 14.6394C11.1206 14.6394 10.7617 14.4907 10.497 14.2261C10.2324 13.9614 10.0837 13.6025 10.0837 13.2282V5.05761ZM12.7374 18.8372C12.452 19.1187 12.0779 19.2926 11.6787 19.3295C11.2796 19.3663 10.88 19.2637 10.5479 19.0392C10.2158 18.8147 9.97179 18.482 9.85727 18.0979C9.74276 17.7137 9.76485 17.3018 9.91979 16.9321C10.0747 16.5624 10.3529 16.2577 10.7071 16.07C11.0613 15.8823 11.4696 15.823 11.8625 15.9023C12.2554 15.9816 12.6088 16.1946 12.8624 16.505C13.1161 16.8154 13.2543 17.204 13.2538 17.6049C13.2557 17.8346 13.2109 18.0622 13.1221 18.2741C13.0334 18.4859 12.9024 18.6775 12.7374 18.8371V18.8372Z" fill="#FCA311"/>
</svg>
