<svg width="24" height="24" viewBox="0 0 24 24" fill="none" xmlns="http://www.w3.org/2000/svg">
<path d="M7.24744 7.15854C7.61112 7.57417 8.24288 7.61629 8.65852 7.25261L11 5.20381V17.0001H13V5.20379L15.3415 7.25261C15.7571 7.61629 16.3889 7.57417 16.7526 7.15854C17.1163 6.7429 17.0742 6.11114 16.6585 5.74746L12 1.67126L7.34151 5.74746C6.92587 6.11114 6.88375 6.7429 7.24744 7.15854Z" fill="#8E8E8E"/>
<path d="M5 13.0001C5 12.4478 5.44772 12.0001 6 12.0001H9V10.0001H6C4.34315 10.0001 3 11.3432 3 13.0001V19.0001C3 20.6569 4.34315 22.0001 6 22.0001H18C19.6569 22.0001 21 20.6569 21 19.0001V13.0001C21 11.3432 19.6569 10.0001 18 10.0001H15V12.0001H18C18.5523 12.0001 19 12.4478 19 13.0001V19.0001C19 19.5523 18.5523 20.0001 18 20.0001H6C5.44772 20.0001 5 19.5523 5 19.0001V13.0001Z" fill="#8E8E8E"/>
</svg>
