<svg width="56" height="56" viewBox="0 0 56 56" fill="none" xmlns="http://www.w3.org/2000/svg">
<path d="M40.25 15.75C35.35 15.75 31.5 19.6 31.5 24.5C31.5 29.4 35.35 33.25 40.25 33.25C40.775 33.25 41.475 33.25 42 33.075C39.725 35.35 36.75 36.75 33.25 36.75C32.2 36.75 31.5 37.45 31.5 38.5C31.5 39.55 32.2 40.25 33.25 40.25C42 40.25 49 33.25 49 24.5C49 19.6 45.15 15.75 40.25 15.75Z" fill="#FCA311"/>
<path d="M15.75 15.75C10.85 15.75 7 19.6 7 24.5C7 29.4 10.85 33.25 15.75 33.25C16.275 33.25 16.975 33.25 17.5 33.075C15.225 35.35 12.25 36.75 8.75 36.75C7.7 36.75 7 37.45 7 38.5C7 39.55 7.7 40.25 8.75 40.25C17.5 40.25 24.5 33.25 24.5 24.5C24.5 19.6 20.65 15.75 15.75 15.75Z" fill="#FCA311"/>
</svg>
