<svg id="next" viewBox="0 0 24 24" fill="none" xmlns="http://www.w3.org/2000/svg">
    <path d="M7.62473 5.93853C7.19347 5.59352 6.56418 5.66344 6.21917 6.0947C5.87416 6.52596 5.94408 7.15526 6.37534 7.50027L12 12L17.6247 7.50027C18.056 7.15526 18.1259 6.52596 17.7809 6.0947C17.4359 5.66344 16.8066 5.59352 16.3753 5.93853L12 9.43877L7.62473 5.93853Z" fill="#0B3847"/>
    <path d="M7.62473 11.9385C7.19347 11.5935 6.56418 11.6634 6.21917 12.0947C5.87416 12.526 5.94408 13.1553 6.37534 13.5003L12 18L17.6247 13.5003C18.056 13.1552 18.1259 12.526 17.7809 12.0947C17.4359 11.6634 16.8066 11.5935 16.3753 11.9385L12 15.4388L7.62473 11.9385Z" fill="#0B3847"/>
</svg>