<svg id="view" viewBox="0 0 16 16" fill="none" xmlns="http://www.w3.org/2000/svg">
    <path d="M1.37468 8.23224C1.31912 8.08256 1.31912 7.91792 1.37468 7.76824C1.91581 6.45614 2.83435 5.33427 4.01386 4.54484C5.19336 3.75541 6.58071 3.33398 8.00001 3.33398C9.41932 3.33398 10.8067 3.75541 11.9862 4.54484C13.1657 5.33427 14.0842 6.45614 14.6253 7.76824C14.6809 7.91792 14.6809 8.08256 14.6253 8.23224C14.0842 9.54434 13.1657 10.6662 11.9862 11.4556C10.8067 12.2451 9.41932 12.6665 8.00001 12.6665C6.58071 12.6665 5.19336 12.2451 4.01386 11.4556C2.83435 10.6662 1.91581 9.54434 1.37468 8.23224Z" stroke="#8E8E8E" stroke-linecap="round" stroke-linejoin="round"/>
    <path d="M8.00001 10.0002C9.10458 10.0002 10 9.10481 10 8.00024C10 6.89567 9.10458 6.00024 8.00001 6.00024C6.89544 6.00024 6.00001 6.89567 6.00001 8.00024C6.00001 9.10481 6.89544 10.0002 8.00001 10.0002Z" stroke="#8E8E8E" stroke-linecap="round" stroke-linejoin="round"/>
</svg>