<svg width="767" height="211" fill="none" xmlns="http://www.w3.org/2000/svg"><path fill-rule="evenodd" clip-rule="evenodd" d="M55.927 211c-15.644 0-28.773-4.641-39.443-13.951C5.408 187.369-.086 174.984 0 159.951v-47.148h37.245v45.127c0 4.897 1.677 9.082 5.032 12.47 3.528 3.701 8.097 5.552 13.649 5.552s10.15-1.822 13.793-5.552c3.355-3.303 5.032-7.488 5.032-12.47v-45.127h37.245v47.148c0 15.602-5.494 28.016-16.483 37.326C84.931 206.445 71.774 211 55.927 211zM0 97.94V51.164C0 35.562 5.494 23.12 16.483 13.696 27.067 4.612 40.138.085 55.782 0c15.934 0 29.149 4.527 39.732 13.695 10.989 9.395 16.483 21.865 16.483 37.468V97.94H74.752V53.184c0-4.868-1.764-9.082-5.32-12.755-3.905-3.701-8.445-5.495-13.505-5.41-5.263 0-9.745 1.794-13.36 5.41-3.528 3.474-5.32 7.716-5.32 12.755v44.757H0zm140.769 109.7c-3.528 0-5.35-1.822-5.437-5.495V8.997c0-3.758 1.822-5.637 5.437-5.637h50.605c15.644 0 28.772 5.124 39.443 15.46 10.468 10.278 15.702 22.89 15.702 37.724v25.254c0 18.164-6.796 32.315-20.358 42.45l22.411 77.755c.376 1.424.231 2.705-.434 3.901-.665 1.138-1.619 1.736-2.978 1.736h-29.322c-1.591 0-2.661-.313-3.355-.968-.694-.598-1.156-1.879-1.446-3.758L194.7 136.035c-.462.086-1.243.143-2.342.143h-19.664v65.967c0 3.673-1.735 5.495-5.176 5.495h-26.777.029zm31.953-106.51h18.681c5.552 0 9.918-1.709 13.041-5.04 3.123-3.36 4.714-7.744 4.714-13.125V56.373c0-5.466-1.619-9.851-4.887-13.154-3.297-3.302-7.576-4.954-12.984-4.954h-18.536v62.865h-.029zm123.853 106.51c-2.892 0-4.367-1.736-4.367-5.238V38.294h-30.276c-2.921 0-4.367-1.708-4.367-5.125V8.712c0-3.673 1.446-5.466 4.367-5.352h97.653c1.301 0 2.371.455 3.21 1.423.896.911 1.301 2.192 1.301 3.815v24.543c0 3.445-1.475 5.124-4.511 5.124h-30.132v164.137c0 3.473-1.446 5.238-4.366 5.238h-28.512zm87.966 0c-3.528 0-5.35-1.879-5.437-5.637V8.997c0-3.758 1.822-5.637 5.437-5.637h82.992c2.892 0 4.337 1.736 4.337 5.238v24.543c0 3.445-1.445 5.124-4.337 5.124h-51.039v48.487h39.588c3.18 0 4.8 1.737 4.887 5.267v24.428c0 3.474-1.62 5.239-4.887 5.239h-39.588v51.02h51.559c3.037 0 4.511 1.652 4.511 4.983v24.855c0 3.388-1.474 5.096-4.511 5.096h-83.512zm98.405 0c-2.921 0-3.904-1.879-3.037-5.637l44.1-193.718c.896-3.303 2.892-4.954 6.015-4.954h25.736c3.123 0 5.118 1.651 6.015 4.954l44.099 193.718c.867 3.758-.087 5.637-3.037 5.637h-29.062c-3.73 0-5.812-1.594-6.274-4.811l-4.887-29.297h-39.588l-4.743 29.297c-.462 3.217-2.573 4.811-6.275 4.811h-29.061zm45.689-66.878h28.396l-12.578-75.107-1.504-19.475-1.62 19.475-12.723 75.107h.029zm94.154 66.878c-2.834 0-4.251-1.879-4.251-5.637V8.57c.289-3.474 1.735-5.239 4.367-5.239h33.804c1.59 0 2.574.313 3.036.997.463.683.983 1.964 1.62 3.929l25.1 89.655h-27.992l-5.957-20.869-.289-1.053.925 10.306.087 26.165.318 89.514c0 3.758-1.446 5.637-4.366 5.637h-26.46l.058.028zm67.782-95.15h-27.905l17.263 60.472c.666 1.965 1.273 3.303 1.822 4.043.521.741 1.533 1.054 2.979 1.054h16.107c1.445 0 2.458-.313 3.065-1.054.549-.74 1.157-2.05 1.677-4.043l17.379-60.472h-28.107l-.579 2.078-1.619 10.734-1.504-10.734-.578-2.078zm8.386-14.55l25.331-89.655c.781-2.648 1.62-4.214 2.429-4.527.463-.285 1.215-.398 2.198-.398h33.717c2.661 0 4.107 1.736 4.367 5.238v193.405c0 3.758-1.446 5.637-4.222 5.637H736.29c-2.978 0-4.424-1.879-4.338-5.637l.376-115.678.983-10.307-.144 1.053-6.015 20.87h-28.194z" fill="#DDDFE4"/></svg>