<svg width="668" height="184" fill="none" xmlns="http://www.w3.org/2000/svg"><g clip-path="url(#clip0_82_768)"><path fill-rule="evenodd" clip-rule="evenodd" d="M48.708 184c-13.625 0-25.059-4.047-34.352-12.166C4.71 163.393-.074 152.593.001 139.483V98.368h32.438v39.353c0 4.27 1.46 7.92 4.382 10.874 3.072 3.228 7.052 4.842 11.887 4.842 4.836 0 8.84-1.589 12.013-4.842 2.922-2.88 4.382-6.529 4.382-10.874V98.368h32.438v41.115c0 13.606-4.785 24.431-14.355 32.55C73.968 180.028 62.509 184 48.708 184zM.001 85.408V44.616C0 31.01 4.786 20.16 14.356 11.942 23.574 4.022 34.957.074 48.582 0 62.46 0 73.968 3.948 83.186 11.942c9.57 8.194 14.355 19.068 14.355 32.674v40.792H65.103v-39.03c0-4.245-1.536-7.92-4.634-11.122-3.4-3.228-7.354-4.792-11.76-4.718-4.585 0-8.488 1.564-11.636 4.718-3.073 3.029-4.634 6.728-4.634 11.123v39.03H0zM122.6 181.07c-3.073 0-4.659-1.589-4.735-4.792V7.846c0-3.278 1.587-4.916 4.735-4.916h44.073c13.625 0 25.059 4.469 34.352 13.481 9.117 8.963 13.676 19.962 13.676 32.897v22.023c0 15.84-5.919 28.18-17.731 37.018l19.519 67.805c.327 1.242.201 2.359-.378 3.402-.579.993-1.41 1.514-2.594 1.514H187.98c-1.386 0-2.318-.273-2.922-.844-.604-.521-1.007-1.639-1.259-3.277l-14.23-58.321c-.402.074-1.082.124-2.039.124h-17.126v57.526c0 3.203-1.511 4.792-4.508 4.792h-23.321.025zm27.829-92.881h16.269c4.836 0 8.639-1.49 11.359-4.395 2.72-2.93 4.105-6.753 4.105-11.445v-23.19c0-4.767-1.411-8.59-4.256-11.47-2.871-2.88-6.599-4.32-11.308-4.32h-16.144v54.82h-.025zm107.866 92.881c-2.518 0-3.803-1.514-3.803-4.568V33.394h-26.368c-2.544 0-3.803-1.49-3.803-4.47V7.598c0-3.202 1.259-4.767 3.803-4.667h85.049c1.133 0 2.065.397 2.795 1.241.781.795 1.133 1.912 1.133 3.327V28.9c0 3.004-1.284 4.469-3.928 4.469H286.93v143.133c0 3.029-1.259 4.568-3.803 4.568h-24.832zm76.612 0c-3.072 0-4.659-1.638-4.735-4.916V7.846c0-3.278 1.587-4.916 4.735-4.916h72.28c2.519 0 3.778 1.514 3.778 4.568V28.9c0 3.004-1.259 4.469-3.778 4.469h-44.451V75.65h34.478c2.77 0 4.181 1.514 4.256 4.593v21.302c0 3.029-1.41 4.569-4.256 4.569h-34.478v44.491h44.905c2.644 0 3.928 1.44 3.928 4.345v21.675c0 2.955-1.284 4.444-3.928 4.444h-72.734zm85.704 0c-2.544 0-3.4-1.638-2.645-4.916l38.407-168.93c.781-2.88 2.518-4.32 5.238-4.32h22.415c2.72 0 4.457 1.44 5.238 4.32l38.407 168.93c.755 3.278-.076 4.916-2.645 4.916h-25.31c-3.249 0-5.062-1.39-5.465-4.196l-4.256-25.548h-34.478l-4.131 25.548c-.403 2.806-2.241 4.196-5.465 4.196h-25.31zm39.792-58.321h24.731l-10.955-65.496-1.31-16.982-1.41 16.982-11.082 65.496h.026zm82.001 58.321c-2.468 0-3.702-1.638-3.702-4.916V7.474c.252-3.03 1.511-4.57 3.803-4.57h29.441c1.385 0 2.241.274 2.644.87s.856 1.713 1.41 3.426l21.861 78.183h-24.379l-5.188-18.198-.252-.92.806 8.989.075 22.816.277 78.06c0 3.277-1.259 4.915-3.802 4.915h-23.044l.05.025zm59.033-82.975h-24.303l15.035 52.735c.579 1.713 1.108 2.88 1.587 3.525.453.646 1.334.919 2.594.919h14.027c1.26 0 2.141-.273 2.67-.919.479-.645 1.007-1.787 1.461-3.525l15.136-52.735h-24.48l-.504 1.813-1.41 9.36-1.309-9.36-.504-1.813zm7.303-12.687l22.062-78.183c.68-2.31 1.411-3.675 2.116-3.948.403-.248 1.058-.347 1.914-.347h29.365c2.317 0 3.576 1.514 3.803 4.568v168.656c0 3.278-1.259 4.916-3.677 4.916h-23.069c-2.594 0-3.853-1.638-3.778-4.916l.328-100.876.856-8.987-.126.918-5.239 18.2H608.74z" fill="#FEFEFE"/></g><defs><clipPath id="clip0_82_768"><path fill="#fff" d="M0 0h668v184H0z"/></clipPath></defs></svg>