<svg width="355" height="98" fill="none" xmlns="http://www.w3.org/2000/svg"><path fill-rule="evenodd" clip-rule="evenodd" d="M25.885 98c-7.24 0-13.317-2.155-18.256-6.48C2.503 87.024-.04 81.272 0 74.29V52.392h17.24v20.96c0 2.274.775 4.218 2.328 5.791 1.633 1.72 3.747 2.579 6.317 2.579 2.57 0 4.698-.846 6.384-2.579 1.553-1.534 2.33-3.478 2.33-5.792v-20.96h17.238v21.9c0 7.246-2.543 13.011-7.629 17.335C39.31 95.884 33.22 98 25.885 98zM0 45.49V23.762C0 16.516 2.543 10.738 7.63 6.36 12.527 2.142 18.577.04 25.817 0c7.375 0 13.491 2.103 18.39 6.36 5.086 4.364 7.629 10.156 7.629 17.403v21.726H34.598V24.702c0-2.262-.816-4.219-2.462-5.925-1.807-1.719-3.909-2.552-6.25-2.512-2.437 0-4.511.833-6.184 2.512-1.633 1.614-2.463 3.584-2.463 5.925v20.787H0zm65.154 50.95c-1.633 0-2.476-.847-2.516-2.552V4.178c0-1.745.843-2.618 2.516-2.618h23.422c7.241 0 13.318 2.38 18.256 7.18 4.845 4.774 7.268 10.633 7.268 17.522v11.73c0 8.436-3.145 15.008-9.423 19.716L115.05 93.82c.174.662.107 1.257-.201 1.812-.308.529-.749.807-1.378.807H99.899c-.736 0-1.231-.146-1.552-.45-.322-.278-.536-.873-.67-1.745l-7.562-31.063c-.214.04-.575.066-1.084.066h-9.1v30.64c0 1.705-.804 2.552-2.397 2.552H65.141h.013zm14.79-49.47h8.646c2.57 0 4.59-.793 6.036-2.34 1.445-1.56 2.182-3.597 2.182-6.097v-12.35c0-2.54-.75-4.576-2.262-6.11-1.526-1.534-3.507-2.3-6.01-2.3h-8.579V46.97h-.013zm57.324 49.47c-1.339 0-2.021-.807-2.021-2.433V17.785h-14.013c-1.352 0-2.021-.794-2.021-2.38V4.046c0-1.705.669-2.539 2.021-2.486h45.198c.602 0 1.097.212 1.485.662.415.423.602 1.018.602 1.772v11.398c0 1.6-.682 2.38-2.087 2.38h-13.947v76.235c0 1.613-.669 2.433-2.021 2.433h-13.196zm40.714 0c-1.633 0-2.476-.873-2.516-2.619V4.18c0-1.746.843-2.619 2.516-2.619h38.412c1.339 0 2.008.807 2.008 2.434v11.398c0 1.6-.669 2.38-2.008 2.38h-23.623v22.52h18.323c1.473 0 2.222.807 2.262 2.447v11.346c0 1.613-.749 2.433-2.262 2.433h-18.323v23.696h23.864c1.406 0 2.088.767 2.088 2.314v11.545c0 1.573-.682 2.367-2.088 2.367h-38.653zm45.546 0c-1.352 0-1.807-.873-1.405-2.619l20.411-89.973c.414-1.534 1.338-2.3 2.783-2.3h11.912c1.446 0 2.369.766 2.784 2.3l20.411 89.973c.401 1.746-.04 2.619-1.405 2.619h-13.451c-1.727 0-2.691-.74-2.905-2.235l-2.262-13.607h-18.323l-2.195 13.607c-.214 1.494-1.191 2.235-2.904 2.235h-13.451zm21.147-31.063h13.143l-5.822-34.883-.696-9.045-.749 9.045-5.889 34.883h.013zm43.579 31.063c-1.312 0-1.968-.873-1.968-2.619V3.981c.134-1.614.803-2.434 2.021-2.434h15.646c.736 0 1.191.146 1.405.463.215.317.455.912.75 1.825l11.617 41.64H304.77l-2.758-9.692-.133-.49.428 4.788.04 12.152.147 41.575c0 1.746-.669 2.618-2.021 2.618h-12.246l.027.014zm31.372-44.194H306.71l7.991 28.087c.307.913.588 1.534.843 1.878.241.344.709.49 1.378.49h7.455c.669 0 1.138-.146 1.419-.49.254-.344.535-.952.776-1.878l8.044-28.087h-13.009l-.268.966-.75 4.985-.695-4.985-.268-.966zm3.881-6.757l11.725-41.64c.361-1.23.749-1.958 1.124-2.103.214-.133.562-.186 1.017-.186h15.606c1.231 0 1.901.807 2.021 2.434V93.82c0 1.746-.669 2.619-1.954 2.619h-12.26c-1.378 0-2.048-.873-2.007-2.619l.174-53.727.455-4.787-.067.49-2.784 9.692h-13.05z" fill="#DDDFE4"/></svg>