<svg width="690" height="56" fill="none" xmlns="http://www.w3.org/2000/svg"><rect y="26" width="285" height="4" rx="2" fill="#FCA311"/><path d="M357.25 15.75c-4.9 0-8.75 3.85-8.75 8.75s3.85 8.75 8.75 8.75c.525 0 1.225 0 1.75-.175-2.275 2.275-5.25 3.675-8.75 3.675-1.05 0-1.75.7-1.75 1.75s.7 1.75 1.75 1.75c8.75 0 15.75-7 15.75-15.75 0-4.9-3.85-8.75-8.75-8.75zm-24.5 0c-4.9 0-8.75 3.85-8.75 8.75s3.85 8.75 8.75 8.75c.525 0 1.225 0 1.75-.175-2.275 2.275-5.25 3.675-8.75 3.675-1.05 0-1.75.7-1.75 1.75s.7 1.75 1.75 1.75c8.75 0 15.75-7 15.75-15.75 0-4.9-3.85-8.75-8.75-8.75z" fill="#FCA311"/><rect x="405" y="26" width="285" height="4" rx="2" fill="#FCA311"/></svg>