<svg width="56" height="56" fill="none" xmlns="http://www.w3.org/2000/svg"><path d="M40.25 15.75c-4.9 0-8.75 3.85-8.75 8.75s3.85 8.75 8.75 8.75c.525 0 1.225 0 1.75-.175-2.275 2.275-5.25 3.675-8.75 3.675-1.05 0-1.75.7-1.75 1.75s.7 1.75 1.75 1.75C42 40.25 49 33.25 49 24.5c0-4.9-3.85-8.75-8.75-8.75zm-24.5 0C10.85 15.75 7 19.6 7 24.5s3.85 8.75 8.75 8.75c.525 0 1.225 0 1.75-.175-2.275 2.275-5.25 3.675-8.75 3.675-1.05 0-1.75.7-1.75 1.75s.7 1.75 1.75 1.75c8.75 0 15.75-7 15.75-15.75 0-4.9-3.85-8.75-8.75-8.75z" fill="#FCA311"/></svg>