<svg width="40" height="40" fill="none" xmlns="http://www.w3.org/2000/svg"><path d="M0 16C0 8.458 0 4.686 2.343 2.343S8.458 0 16 0h8c7.543 0 11.314 0 13.657 2.343S40 8.458 40 16v8c0 7.543 0 11.314-2.343 13.657S31.543 40 24 40h-8c-7.542 0-11.314 0-13.657-2.343S0 31.543 0 24v-8z" fill="#FCA311"/><path d="M13.047 9.5h13.906c.334 0 .609.275.609.61v.922a2.062 2.062 0 00-1.738-.953h-11.46c-.878 0-1.629.55-1.926 1.324V10.11c0-.334.275-.609.61-.609zm13.585 6.684c.383-.164.707-.44.93-.788v1.625a2.213 2.213 0 00-.93-.837zm.34 4.73c.236-.17.437-.386.59-.635v1.271a2.216 2.216 0 00-.59-.635zm0 4.53c.236-.17.437-.387.59-.636v1.271a2.214 2.214 0 00-.59-.635zm-1.289 4.945c.795 0 1.491-.42 1.879-1.051v.553a.612.612 0 01-.61.609H13.048a.612.612 0 01-.609-.61v-.552a2.202 2.202 0 001.879 1.051h1.315c.779 0 1.463-.404 1.855-1.014a2.202 2.202 0 001.856 1.014h6.34zm-12.655-4.945a2.22 2.22 0 00-.59.635v-1.27c.153.248.354.464.59.635zm0-4.53a2.224 2.224 0 00-.59.636v-1.27c.153.248.354.464.59.635zm.435-4.773c-.427.18-.785.49-1.025.88v-1.997c.188.489.557.889 1.025 1.117zm4.024.843a2.215 2.215 0 00-.62-.636h1.24a2.215 2.215 0 00-.62.636zm5.026 0a2.214 2.214 0 00-.62-.636h1.24a2.213 2.213 0 00-.62.636zm-.566 3.93c.224-.161.416-.364.566-.598.15.234.342.437.566.599a2.216 2.216 0 00-.566.598 2.217 2.217 0 00-.566-.598zm.436 4.114c.046-.059.09-.12.13-.182.04.063.084.123.13.182h-.26zm-4.896-.183a2.2 2.2 0 00.567.599 2.213 2.213 0 00-.567.598 2.214 2.214 0 00-.566-.598c.224-.162.416-.365.566-.599zm.567-3.93a2.219 2.219 0 00-.567.598 2.217 2.217 0 00-.566-.598c.224-.162.416-.366.566-.599.15.233.342.437.567.599z" fill="#FEFEFE" stroke="#0B3847" stroke-width="3"/></svg>