<svg width="80" height="80" fill="none" xmlns="http://www.w3.org/2000/svg"><path fill-rule="evenodd" clip-rule="evenodd" d="M53.904 48.652a3.318 3.318 0 00-1.428-.319h-6.365l-21.03 7.572.665 2.884 28.158-10.137zM27.166 64.944L55.16 54.867l.566-2.45c.07-.307.096-.611.083-.908L26.5 62.06l.665 2.885zm27.101-6.213l-25.912 9.328a5.002 5.002 0 003.378 1.908l21.748-7.83.786-3.406zM47.69 70h-6.208l11.108-4-.028.123A5 5 0 0147.689 70zM27.523 48.332h8.747l-11.944 4.3-.05-.217a3.333 3.333 0 013.247-4.082z" fill="#FEFEFE"/><path fill-rule="evenodd" clip-rule="evenodd" d="M42.397 13.38c5.266-2.615 15.884-6.25 23.566 1.843 6.868 7.236 3.566 14.795.389 22.07-1.728 3.956-3.419 7.827-3.419 11.517-2.1 3.69-46.266 2.857-47.557 0 0-4.273-1.427-8.72-2.81-13.033-2.279-7.105-4.44-13.845.083-18.836 7.27-8.02 16.218-9.734 26.518-1.718l.05-.034 11.361 8.271a1.667 1.667 0 101.962-2.695l-10.143-7.384z" fill="#FEFEFE"/></svg>