<svg width="80" height="80" fill="none" xmlns="http://www.w3.org/2000/svg"><path d="M40 4c-7.733 0-14.022 6.312-14.022 14.07v7.29c0 7.758 6.29 14.07 14.022 14.07 7.733 0 14.021-6.312 14.021-14.07v-7.29C54.021 10.312 47.733 4 40 4zm30.922 53.764c-4.49-7.677-11.666-13.368-20.207-16.026a.558.558 0 00-.56.137c-3.973 3.931-8.91 6.998-10.145 7.738-1.317-.845-6.867-4.474-10.166-7.738a.558.558 0 00-.56-.137c-8.543 2.659-15.719 8.35-20.207 16.027a.565.565 0 000 .57C15.451 69.23 27.3 76 40 76s24.55-6.769 30.923-17.666a.563.563 0 000-.57zM59.07 61.961c0 .31-.295.548-.603.548h-3.798c-.31 0-.647.266-.647.577v3.94c0 .31-.165.547-.475.547h-3.41c-.31 0-.602-.236-.602-.546v-3.94c0-.311-.212-.578-.521-.578h-3.962a.554.554 0 01-.565-.548v-3.393c0-.31.256-.56.565-.56h3.962c.309 0 .52-.254.52-.565v-3.945c0-.31.292-.555.601-.555h3.374c.31 0 .512.244.512.555v3.956c0 .311.3.553.61.553h3.836c.308 0 .603.262.603.573v3.38z" fill="#FEFEFE"/></svg>