<svg width="80" height="80" fill="none" xmlns="http://www.w3.org/2000/svg"><path d="M44.89 21.321a.527.527 0 00-.254-.509.546.546 0 00-.572.015S18.462 38.524 5.637 48.202c-.808.557-.766 1.163-.12 1.835l3.245 3.244c.534.534 1.287.425 1.652.06 12.237-9.21 12.442-9.002 12.442-9.002l20.418-9.045a.535.535 0 00.328-.446L44.89 21.32zm26.902-7.044a.53.53 0 00-.394-.216c-.19-.033-.314.048-.423.164l-3.507 3.652a.537.537 0 00-.096.605c.017.026 1.277 2.655.017 4.837-.915 1.38-3.169 1.753-4.82 1.652-.991-.061-1.905-.28-2.573-.618a.533.533 0 00-.734.676l3.714 9.073c.075.142.273.39.736.42 1.505.091 6.115-2.387 8.104-4.138 7.07-6.215.05-16.006-.024-16.107z" fill="#FEFEFE"/><path d="M61.742 35.097l-3.73-9.638a.542.542 0 00-.054-.271c-.034-.065-3.34-6.62-.152-8.985 1.945-1.733 5.927-1.097 5.97-1.088a.532.532 0 00.474-.158l3.617-3.809a.539.539 0 00-.106-.824c-.214-.127-5.249-3.188-10.42-3.505-3.949-.241-6.879 1.166-8.71 4.182-1.338 2.204-1.641 4.542-1.966 7.016-.074.577-.153 1.167-.247 1.81a931.91 931.91 0 01-1.58 16.361L33.625 57.064c-.127.226-.127.226-9.014 10.415-.478.489-.567 1.084.015 1.667.407.405 2.66 2.66 3.168 3.165.507.508.95.52 1.534-.122 9.97-11.619 32.318-36.552 32.318-36.552a.53.53 0 00.096-.54zm-9.252-1.814a3.165 3.165 0 11.389-6.318 3.166 3.166 0 11-.389 6.318z" fill="#FEFEFE"/></svg>