<svg width="25" height="24" viewBox="0 0 25 24" fill="none" xmlns="http://www.w3.org/2000/svg">
<path d="M12.5 0C10.1266 0 7.80655 0.703788 5.83316 2.02236C3.85977 3.34094 2.3217 5.21508 1.41345 7.4078C0.505199 9.60051 0.267559 12.0133 0.730582 14.3411C1.1936 16.6689 2.33649 18.807 4.01472 20.4853C5.69295 22.1635 7.83115 23.3064 10.1589 23.7694C12.4867 24.2324 14.8995 23.9948 17.0922 23.0865C19.2849 22.1783 21.1591 20.6402 22.4776 18.6668C23.7962 16.6934 24.5 14.3734 24.5 12C24.4965 8.81847 23.2311 5.76826 20.9814 3.51858C18.7317 1.2689 15.6815 0.00349392 12.5 0ZM16.7636 15.474L11.9636 13.074C11.7641 12.9743 11.5964 12.821 11.4792 12.6313C11.3619 12.4416 11.2999 12.223 11.3 12V6C11.3 5.68174 11.4264 5.37651 11.6515 5.15147C11.8765 4.92643 12.1817 4.8 12.5 4.8C12.8183 4.8 13.1235 4.92643 13.3485 5.15147C13.5736 5.37651 13.7 5.68174 13.7 6V11.2584L17.8364 13.326C18.1212 13.4683 18.3379 13.7178 18.4387 14.0199C18.5395 14.3219 18.5163 14.6516 18.374 14.9364C18.2317 15.2212 17.9822 15.4379 17.6801 15.5387C17.3781 15.6395 17.0484 15.6163 16.7636 15.474Z" fill="#FCA311"/>
</svg>
