<svg width="283" height="78" fill="none" xmlns="http://www.w3.org/2000/svg"><path fill-rule="evenodd" clip-rule="evenodd" d="M20.635 78c-5.772 0-10.616-1.716-14.553-5.157C1.996 69.264-.032 64.686 0 59.129v-17.43h13.743v16.683c0 1.81.619 3.357 1.856 4.61 1.302 1.368 2.988 2.052 5.036 2.052 2.049 0 3.745-.674 5.09-2.052 1.237-1.221 1.856-2.768 1.856-4.61V41.7h13.743v17.429c0 5.768-2.028 10.356-6.082 13.798C31.337 76.316 26.482 78 20.635 78zM0 36.206V18.913c0-5.767 2.028-10.367 6.082-13.85C9.987 1.704 14.81.031 20.582 0c5.879 0 10.755 1.673 14.66 5.062 4.054 3.474 6.082 8.084 6.082 13.851v17.293H27.58V19.66c0-1.8-.65-3.357-1.963-4.715-1.44-1.368-3.115-2.031-4.983-2-1.942 0-3.595.664-4.93 2-1.3 1.284-1.962 2.853-1.962 4.715v16.546H0zm51.94 40.552c-1.302 0-1.974-.673-2.006-2.031V3.326c0-1.39.672-2.084 2.006-2.084h18.672c5.772 0 10.616 1.894 14.553 5.715 3.862 3.8 5.793 8.462 5.793 13.945v9.336c0 6.715-2.507 11.946-7.51 15.693l8.268 28.743c.139.526.085 1-.16 1.442-.245.421-.598.642-1.099.642H79.638c-.587 0-.982-.116-1.238-.358-.256-.22-.426-.694-.533-1.39l-6.028-24.722c-.171.032-.46.053-.865.053H63.72v24.386c0 1.358-.64 2.031-1.91 2.031h-9.88.01zm11.79-39.374h6.892c2.049 0 3.66-.631 4.812-1.862 1.153-1.242 1.74-2.863 1.74-4.852v-9.83c0-2.021-.598-3.642-1.804-4.863-1.216-1.221-2.795-1.832-4.79-1.832h-6.84v23.24h-.01zm45.697 39.374c-1.066 0-1.611-.642-1.611-1.936V14.156h-11.17c-1.078 0-1.612-.632-1.612-1.895v-9.04c0-1.358.534-2.021 1.611-1.98h36.031c.481 0 .875.17 1.185.527.331.337.48.81.48 1.41v9.073c0 1.274-.544 1.895-1.665 1.895h-11.117V74.82c0 1.285-.534 1.937-1.611 1.937h-10.521zm32.457 0c-1.301 0-1.974-.695-2.006-2.084V3.326c0-1.39.673-2.084 2.006-2.084h30.622c1.067 0 1.6.642 1.6 1.937v9.072c0 1.274-.533 1.895-1.6 1.895h-18.832v17.923h14.607c1.173 0 1.771.642 1.803 1.947v9.03c0 1.285-.598 1.937-1.803 1.937h-14.607v18.861h19.024c1.12 0 1.664.61 1.664 1.842v9.188c0 1.253-.544 1.884-1.664 1.884h-30.814zm36.309 0c-1.078 0-1.441-.695-1.12-2.084l16.271-71.611c.33-1.221 1.067-1.832 2.219-1.832h9.496c1.152 0 1.888.61 2.219 1.832l16.271 71.611c.32 1.39-.032 2.084-1.12 2.084h-10.723c-1.376 0-2.145-.59-2.315-1.779l-1.803-10.83h-14.607l-1.75 10.83c-.171 1.19-.95 1.78-2.315 1.78h-10.723zm16.858-24.723h10.477l-4.641-27.765-.555-7.199-.597 7.2-4.695 27.764h.011zm34.74 24.723c-1.046 0-1.569-.695-1.569-2.084V3.168c.107-1.284.641-1.937 1.612-1.937h12.472c.587 0 .95.116 1.121.369.17.252.362.726.597 1.452l9.261 33.143h-10.328l-2.198-7.715-.107-.39.342 3.811.032 9.672.117 33.09c0 1.39-.533 2.085-1.611 2.085h-9.762l.021.01zM254.8 41.584h-10.296l6.37 22.355c.245.726.469 1.22.672 1.494.192.274.566.39 1.099.39h5.943c.534 0 .907-.116 1.131-.39.203-.273.427-.758.619-1.494l6.412-22.355h-10.371l-.213.768-.597 3.968-.555-3.968-.214-.768zm3.094-5.378l9.347-33.143c.288-.98.598-1.558.896-1.674.171-.105.448-.147.811-.147h12.441c.981 0 1.515.642 1.611 1.937v71.495c0 1.39-.534 2.084-1.558 2.084h-9.773c-1.099 0-1.633-.695-1.601-2.084l.139-42.763.363-3.81-.053.39-2.22 7.715h-10.403z" fill="#FEFEFE"/></svg>