<svg width="283" height="78" viewBox="0 0 283 78" fill="none" xmlns="http://www.w3.org/2000/svg">
<path fill-rule="evenodd" clip-rule="evenodd" d="M20.6353 78C14.8631 78 10.0191 76.2844 6.08201 72.8428C1.99556 69.2643 -0.0316355 64.686 0.000373162 59.1289V41.6996H13.7428V58.3816C13.7428 60.1919 14.3616 61.739 15.5993 62.9915C16.901 64.3597 18.5868 65.0439 20.6353 65.0439C22.6839 65.0439 24.3803 64.3703 25.7247 62.9915C26.9624 61.7706 27.5812 60.2235 27.5812 58.3816V41.6996H41.3236V59.1289C41.3236 64.8965 39.2964 69.4854 35.242 72.927C31.3369 76.316 26.4822 78 20.6353 78ZM0.000373162 36.2056V18.9132C0.000373162 13.1456 2.02757 8.54621 6.08201 5.06247C9.98707 1.70503 14.8097 0.0315747 20.5819 0C26.4609 0 31.3369 1.67346 35.242 5.06247C39.2964 8.53569 41.3236 13.1456 41.3236 18.9132V36.2056H27.5812V19.6605C27.5812 17.8607 26.9303 16.3031 25.618 14.9454C24.1776 13.5771 22.5025 12.914 20.6353 12.9456C18.6935 12.9456 17.0396 13.6087 15.7059 14.9454C14.4043 16.2294 13.7428 17.7976 13.7428 19.6605V36.2056H0.000373162ZM51.9398 76.7581C50.6381 76.7581 49.966 76.0845 49.9339 74.7268V3.32587C49.9339 1.93658 50.6061 1.24194 51.9398 1.24194H70.6116C76.3838 1.24194 81.2278 3.13642 85.1648 6.95696C89.0272 10.7564 90.9584 15.419 90.9584 20.9024V30.238C90.9584 36.9529 88.4511 42.1838 83.4471 45.9306L91.716 74.6741C91.8547 75.2004 91.8013 75.674 91.5559 76.116C91.3105 76.537 90.9584 76.7581 90.457 76.7581H79.638C79.0512 76.7581 78.6564 76.6423 78.4003 76.4002C78.1443 76.1792 77.9736 75.7056 77.8669 75.0109L71.8386 50.2879C71.6679 50.3195 71.3798 50.3406 70.9743 50.3406H63.719V74.7268C63.719 76.0845 63.0789 76.7581 61.8092 76.7581H51.9291H51.9398ZM63.7297 37.3844H70.6222C72.6708 37.3844 74.2819 36.7529 75.4342 35.5215C76.5865 34.2796 77.1734 32.6587 77.1734 30.6695V20.8393C77.1734 18.8185 76.5759 17.1977 75.3702 15.9768C74.1539 14.7559 72.5748 14.1455 70.5796 14.1455H63.7404V37.3844H63.7297ZM109.427 76.7581C108.361 76.7581 107.816 76.116 107.816 74.8215V14.156H96.6453C95.5677 14.156 95.0342 13.5245 95.0342 12.2615V3.22062C95.0342 1.86291 95.5677 1.19984 96.6453 1.24194H132.676C133.157 1.24194 133.551 1.41034 133.861 1.76818C134.192 2.10498 134.341 2.5786 134.341 3.17852V12.251C134.341 13.5245 133.797 14.1455 132.676 14.1455H121.559V74.8215C121.559 76.1055 121.025 76.7581 119.948 76.7581H109.438H109.427ZM141.884 76.7581C140.583 76.7581 139.91 76.0634 139.878 74.6741V3.32587C139.878 1.93658 140.551 1.24194 141.884 1.24194H172.506C173.573 1.24194 174.106 1.88396 174.106 3.17852V12.251C174.106 13.5245 173.573 14.1455 172.506 14.1455H153.674V32.0694H168.281C169.454 32.0694 170.052 32.7114 170.084 34.0165V43.0468C170.084 44.3309 169.486 44.9834 168.281 44.9834H153.674V63.844H172.698C173.818 63.844 174.362 64.4545 174.362 65.6859V74.8741C174.362 76.1266 173.818 76.7581 172.698 76.7581H141.895H141.884ZM178.193 76.7581C177.115 76.7581 176.752 76.0634 177.073 74.6741L193.344 3.06274C193.674 1.84186 194.411 1.23141 195.563 1.23141H205.059C206.211 1.23141 206.947 1.84186 207.278 3.06274L223.549 74.6741C223.869 76.0634 223.517 76.7581 222.429 76.7581H211.706C210.33 76.7581 209.561 76.1687 209.391 74.9794L207.588 64.1492H192.981L191.231 74.9794C191.06 76.1687 190.281 76.7581 188.916 76.7581H178.193ZM195.051 52.0351H205.528L200.887 24.2704L200.332 17.0714L199.735 24.2704L195.04 52.0351H195.051ZM229.791 76.7581C228.745 76.7581 228.222 76.0634 228.222 74.6741V3.16799C228.329 1.88396 228.863 1.23141 229.834 1.23141H242.306C242.893 1.23141 243.256 1.34719 243.427 1.59978C243.597 1.85238 243.789 2.326 244.024 3.05222L253.285 36.1951H242.957L240.759 28.4804L240.652 28.0909L240.994 31.901L241.026 41.5733L241.143 74.6636C241.143 76.0529 240.61 76.7475 239.532 76.7475H229.77L229.791 76.7581ZM254.8 41.5839H244.504L250.874 63.9387C251.119 64.665 251.343 65.1596 251.546 65.4333C251.738 65.7069 252.112 65.8227 252.645 65.8227H258.588C259.122 65.8227 259.495 65.7069 259.719 65.4333C259.922 65.1596 260.146 64.6755 260.338 63.9387L266.75 41.5839H256.379L256.166 42.3522L255.569 46.3201L255.014 42.3522L254.8 41.5839ZM257.894 36.2056L267.241 3.06274C267.529 2.08393 267.839 1.50506 268.137 1.38929C268.308 1.28404 268.585 1.24194 268.948 1.24194H281.389C282.37 1.24194 282.904 1.88396 283 3.17852V74.6741C283 76.0634 282.466 76.7581 281.442 76.7581H271.669C270.57 76.7581 270.036 76.0634 270.068 74.6741L270.207 31.9115L270.57 28.1015L270.517 28.4909L268.297 36.2056H257.894Z" fill="#FEFEFE"/>
</svg>
