<svg width="80" height="80" viewBox="0 0 80 80" fill="none" xmlns="http://www.w3.org/2000/svg">
<path d="M40.5 8C34.2699 8 28.1797 9.84744 22.9995 13.3087C17.8194 16.77 13.782 21.6896 11.3978 27.4455C9.01365 33.2013 8.38984 39.5349 9.60528 45.6453C10.8207 51.7557 13.8208 57.3685 18.2261 61.7738C22.6315 66.1792 28.2443 69.1793 34.3547 70.3947C40.4651 71.6102 46.7987 70.9863 52.5545 68.6022C58.3104 66.218 63.23 62.1806 66.6913 57.0004C70.1526 51.8203 72 45.7301 72 39.5C71.9908 31.1485 68.6691 23.1417 62.7637 17.2363C56.8583 11.3309 48.8515 8.00917 40.5 8ZM51.692 48.6192L39.092 42.3192C38.5683 42.0576 38.128 41.6552 37.8203 41.1572C37.5126 40.6592 37.3497 40.0854 37.35 39.5V23.75C37.35 22.9146 37.6819 22.1133 38.2726 21.5226C38.8634 20.9319 39.6646 20.6 40.5 20.6C41.3354 20.6 42.1367 20.9319 42.7274 21.5226C43.3181 22.1133 43.65 22.9146 43.65 23.75V37.5533L54.5081 42.9807C55.2558 43.3542 55.8245 44.0093 56.0892 44.8021C56.3538 45.5949 56.2927 46.4603 55.9193 47.208C55.5458 47.9557 54.8906 48.5245 54.0979 48.7891C53.3051 49.0538 52.4397 48.9927 51.692 48.6192Z" fill="#FEFEFE"/>
</svg>
