<svg width="80" height="80" viewBox="0 0 80 80" fill="none" xmlns="http://www.w3.org/2000/svg">
<path fill-rule="evenodd" clip-rule="evenodd" d="M53.9035 48.6522C53.4738 48.4485 52.9914 48.3335 52.4765 48.3335H46.1112L25.0805 55.9045L25.7462 58.7888L53.9035 48.6522ZM27.1665 64.9442L55.159 54.8668L55.7245 52.4163C55.7952 52.11 55.8214 51.8057 55.8079 51.5093L26.501 62.0598L27.1665 64.9442ZM54.2673 58.7307L28.3552 68.059C29.166 69.1065 30.3765 69.8098 31.733 69.9668L53.4812 62.1375L54.2673 58.7307ZM47.6892 70.0002H41.4815L52.5895 66.0013L52.561 66.1245C52.0375 68.3932 50.0174 70.0002 47.6892 70.0002ZM27.5235 48.3335H36.2702L24.3257 52.6335L24.2755 52.4163C23.7935 50.3277 25.3799 48.3335 27.5235 48.3335Z" fill="#FEFEFE"/>
<path fill-rule="evenodd" clip-rule="evenodd" d="M42.397 13.3809C47.6632 10.7646 58.2808 7.12967 65.9627 15.2229C72.8308 22.4588 69.5293 30.0182 66.3518 37.2935C64.6243 41.2487 62.9335 45.12 62.9335 48.8095C60.8333 52.5 16.6667 51.6667 15.3757 48.8095C15.3757 44.5373 13.9493 40.0898 12.566 35.7767C10.2874 28.6718 8.12575 21.9317 12.6495 16.9412C19.9195 8.92112 28.8675 7.20657 39.1667 15.2228C39.1667 15.2228 39.1837 15.2111 39.2168 15.1888L50.5782 23.46C51.3222 24.0018 52.3647 23.8377 52.9065 23.0935C53.4482 22.3493 53.2842 21.307 52.54 20.7652L42.397 13.3809Z" fill="#FEFEFE"/>
</svg>
