<svg width="80" height="80" viewBox="0 0 80 80" fill="none" xmlns="http://www.w3.org/2000/svg">
<path d="M44.8896 21.3214C44.911 21.1165 44.8127 20.9169 44.6356 20.8123C44.4563 20.7098 44.2342 20.7141 44.0636 20.8274C44.0636 20.8274 18.4618 38.5239 5.63676 48.2018C4.82887 48.759 4.87149 49.365 5.51718 50.0373C5.99956 50.5197 8.2309 52.7501 8.76233 53.2814C9.29597 53.815 10.0493 53.7061 10.4143 53.3413C22.6513 44.1317 22.8562 44.3387 22.8562 44.3387L43.2737 35.2936C43.4552 35.219 43.5834 35.0493 43.6023 34.8476L44.8896 21.3214Z" fill="#FEFEFE"/>
<path d="M71.7924 14.2768C71.7008 14.1508 71.5533 14.0698 71.3977 14.0612C71.2077 14.0281 71.0839 14.1093 70.975 14.2245L67.4684 17.8772C67.3125 18.0383 67.2763 18.2784 67.3724 18.4823C67.3894 18.5079 68.6487 21.1375 67.3894 23.3187C66.4739 24.6997 64.2202 25.072 62.5682 24.9706C61.5779 24.9098 60.6644 24.691 59.9964 24.3527C59.8001 24.2524 59.5609 24.2843 59.3945 24.4359C59.2301 24.5885 59.1768 24.8244 59.2622 25.0292L62.9758 34.1021C63.0506 34.2439 63.249 34.4926 63.7122 34.5215C65.2169 34.6133 69.8271 32.1353 71.8161 30.3841C78.8867 24.1692 71.8652 14.378 71.7924 14.2768Z" fill="#FEFEFE"/>
<path d="M61.7421 35.0974L58.0113 25.4589C58.0153 25.365 58.0004 25.2711 57.9578 25.1877C57.9237 25.1227 54.6177 18.5683 57.8063 16.2034C59.7507 14.4702 63.7334 15.1064 63.776 15.1148C63.9511 15.1426 64.1282 15.086 64.2498 14.9568L67.8674 11.1483C67.9762 11.032 68.0297 10.8709 68.0083 10.7107C67.987 10.5505 67.8974 10.4098 67.7607 10.3244C67.5473 10.1975 62.5124 7.13583 57.341 6.81896C53.3925 6.57777 50.4622 7.98542 48.6309 11.0011C47.2927 13.2049 46.9896 15.543 46.6654 18.0166C46.5906 18.594 46.5116 19.184 46.4177 19.8266C45.8308 26.6915 44.9877 34.7954 44.8381 36.1881L33.6247 57.0636C33.4977 57.2897 33.4977 57.2897 24.6115 67.4789C24.1333 67.9678 24.0439 68.5631 24.6265 69.1458C25.0331 69.5514 27.2868 71.8051 27.7938 72.3109C28.3006 72.8188 28.7446 72.8316 29.3284 72.1891C39.2986 60.57 61.6459 35.6372 61.6459 35.6372C61.7763 35.4901 61.8125 35.2787 61.7421 35.0974ZM52.49 33.2832C50.7441 33.1765 49.4145 31.6738 49.5233 29.9302C49.6322 28.1866 51.1326 26.8559 52.8785 26.9646C54.6243 27.0713 55.9519 28.5729 55.8452 30.3176C55.7362 32.0612 54.2336 33.3899 52.49 33.2832Z" fill="#FEFEFE"/>
</svg>
