<svg width="80" height="80" viewBox="0 0 80 80" fill="none" xmlns="http://www.w3.org/2000/svg">
<path d="M39.9998 4C32.2674 4 25.9783 10.3118 25.9783 18.0698V25.3591C25.9783 33.1177 32.2674 39.4295 39.9998 39.4295C47.7328 39.4295 54.0214 33.1177 54.0214 25.3591V18.0698C54.0215 10.3118 47.7328 4 39.9998 4Z" fill="#FEFEFE"/>
<path d="M70.9225 57.7642C66.4326 50.0873 59.2559 44.3959 50.7146 41.7383C50.5165 41.6767 50.3024 41.7291 50.1548 41.8754C46.1816 45.806 41.2444 48.8726 40.0101 49.6133C38.6926 48.7683 33.1429 45.139 29.8436 41.8754C29.6966 41.7291 29.4808 41.6767 29.2838 41.7383C20.7414 44.3965 13.5653 50.0879 9.07707 57.7648C8.97431 57.9405 8.97431 58.1588 9.07707 58.3344C15.4506 69.2311 27.2992 76.0002 39.9992 76.0002C52.6998 76.0002 64.549 69.2311 70.9225 58.3344C71.0258 58.1582 71.0258 57.9399 70.9225 57.7642ZM59.0699 61.9609C59.0699 62.2714 58.7754 62.5087 58.4665 62.5087H54.6689C54.3595 62.5087 54.0219 62.7754 54.0219 63.0864V67.0268C54.0219 67.3367 53.8566 67.5734 53.5471 67.5734H50.1365C49.827 67.5734 49.5354 67.3367 49.5354 67.0268V63.0864C49.5343 62.7759 49.323 62.5087 49.0136 62.5087H45.0523C44.7429 62.5087 44.4869 62.2708 44.4869 61.9609V58.5683C44.4869 58.2578 44.7429 58.0073 45.0523 58.0073H49.0136C49.323 58.0073 49.5343 57.7538 49.5343 57.4428V53.4978C49.5343 53.1873 49.8259 52.9425 50.1353 52.9425H53.5092C53.8181 52.9425 54.0213 53.1873 54.0213 53.4978V57.4543C54.0213 57.7654 54.321 58.0067 54.631 58.0067H58.4665C58.7754 58.0067 59.0699 58.2693 59.0699 58.5798V61.9609Z" fill="#FEFEFE"/>
</svg>
